<mxfile host="app.diagrams.net" agent="Mozilla/5.0 (Windows NT 10.0; Win64; x64) AppleWebKit/537.36 (KHTML, like Gecko) Chrome/130.0.0.0 Safari/537.36" version="24.9.2">
  <diagram name="Сторінка-1" id="6_4TzbL7-qZ2dJ_BkcaK">
    <mxGraphModel dx="1050" dy="522" grid="1" gridSize="10" guides="1" tooltips="1" connect="1" arrows="1" fold="1" page="1" pageScale="1" pageWidth="827" pageHeight="1169" math="0" shadow="0">
      <root>
        <mxCell id="0" />
        <mxCell id="1" parent="0" />
        <mxCell id="fdiV-WXQC0dSZiMpGn5z-1" value="&lt;font style=&quot;font-size: 17px;&quot;&gt;square.h&lt;/font&gt;" style="rounded=0;whiteSpace=wrap;html=1;" vertex="1" parent="1">
          <mxGeometry x="140" y="75" width="140" height="70" as="geometry" />
        </mxCell>
        <mxCell id="fdiV-WXQC0dSZiMpGn5z-3" style="edgeStyle=orthogonalEdgeStyle;rounded=0;orthogonalLoop=1;jettySize=auto;html=1;entryX=1;entryY=0.5;entryDx=0;entryDy=0;" edge="1" parent="1" source="fdiV-WXQC0dSZiMpGn5z-2" target="fdiV-WXQC0dSZiMpGn5z-1">
          <mxGeometry relative="1" as="geometry" />
        </mxCell>
        <mxCell id="fdiV-WXQC0dSZiMpGn5z-2" value="&lt;font style=&quot;font-size: 17px;&quot;&gt;source.cpp&lt;/font&gt;" style="rounded=0;whiteSpace=wrap;html=1;" vertex="1" parent="1">
          <mxGeometry x="380" y="80" width="120" height="60" as="geometry" />
        </mxCell>
        <mxCell id="fdiV-WXQC0dSZiMpGn5z-6" value="" style="edgeStyle=orthogonalEdgeStyle;rounded=0;orthogonalLoop=1;jettySize=auto;html=1;" edge="1" parent="1" source="fdiV-WXQC0dSZiMpGn5z-4" target="fdiV-WXQC0dSZiMpGn5z-1">
          <mxGeometry relative="1" as="geometry">
            <Array as="points">
              <mxPoint x="210" y="220" />
              <mxPoint x="210" y="220" />
            </Array>
          </mxGeometry>
        </mxCell>
        <mxCell id="fdiV-WXQC0dSZiMpGn5z-4" value="&lt;div style=&quot;padding-top: 0px; padding-bottom: 80px;&quot;&gt;&lt;span style=&quot;background-color: initial;&quot;&gt;lab_1.2.cpp&lt;/span&gt;&lt;/div&gt;" style="rounded=0;whiteSpace=wrap;html=1;fontSize=17;align=left;" vertex="1" parent="1">
          <mxGeometry x="140" y="240" width="290" height="170" as="geometry" />
        </mxCell>
        <mxCell id="fdiV-WXQC0dSZiMpGn5z-5" value="&lt;div&gt;Kvadrat::Init(...)&lt;/div&gt;Kvadrat::Display()&lt;div&gt;Kvadrat::Read()&lt;/div&gt;&lt;div&gt;Kvadrat::Side()&lt;/div&gt;&lt;div&gt;Kvadrat::Square()&lt;/div&gt;&lt;div&gt;Kvadrat::Perymetr()&lt;/div&gt;&lt;div&gt;&lt;br&gt;&lt;/div&gt;" style="rounded=0;whiteSpace=wrap;html=1;" vertex="1" parent="1">
          <mxGeometry x="250" y="250" width="170" height="150" as="geometry" />
        </mxCell>
      </root>
    </mxGraphModel>
  </diagram>
</mxfile>
